<?xml version="1.0" encoding="UTF-8" standalone="no"?>
<!-- Created with Inkscape (http://www.inkscape.org/) -->

<svg
   width="404.86014mm"
   height="129.85924mm"
   viewBox="0 0 404.86012 129.85923"
   version="1.1"
   id="svg273"
   sodipodi:docname="logo_readme.svg"
   inkscape:version="1.2 (dc2aedaf03, 2022-05-15)"
   inkscape:export-filename="logo.png"
   inkscape:export-xdpi="100"
   inkscape:export-ydpi="100"
   xmlns:inkscape="http://www.inkscape.org/namespaces/inkscape"
   xmlns:sodipodi="http://sodipodi.sourceforge.net/DTD/sodipodi-0.dtd"
   xmlns:xlink="http://www.w3.org/1999/xlink"
   xmlns="http://www.w3.org/2000/svg"
   xmlns:svg="http://www.w3.org/2000/svg"
   xmlns:rdf="http://www.w3.org/1999/02/22-rdf-syntax-ns#"
   xmlns:cc="http://creativecommons.org/ns#"
   xmlns:dc="http://purl.org/dc/elements/1.1/">
  <metadata
     id="metadata61">
    <rdf:RDF>
      <cc:Work
         rdf:about="">
        <dc:format>image/svg+xml</dc:format>
        <dc:type
           rdf:resource="http://purl.org/dc/dcmitype/StillImage" />
      </cc:Work>
    </rdf:RDF>
  </metadata>
  <style
     id="style1088">
.measure-arrow
{
}
.measure-label
{

}
.measure-line
{
}</style>
  <sodipodi:namedview
     id="namedview275"
     pagecolor="#ffffff"
     bordercolor="#999999"
     borderopacity="1"
     inkscape:showpageshadow="0"
     inkscape:pageopacity="0"
     inkscape:pagecheckerboard="0"
     inkscape:deskcolor="#d1d1d1"
     inkscape:document-units="mm"
     showgrid="true"
     inkscape:zoom="0.5"
     inkscape:cx="525"
     inkscape:cy="516"
     inkscape:window-width="1920"
     inkscape:window-height="1011"
     inkscape:window-x="0"
     inkscape:window-y="32"
     inkscape:window-maximized="1"
     inkscape:current-layer="text7217"
     showguides="false">
    <inkscape:grid
       type="xygrid"
       id="grid1406"
       originx="-56.882596"
       originy="-56.264242" />
  </sodipodi:namedview>
  <defs
     id="defs270">
    <linearGradient
       id="linearGradient6957"
       inkscape:swatch="solid">
      <stop
         style="stop-color:#000000;stop-opacity:1;"
         offset="0"
         id="stop6955" />
    </linearGradient>
    <inkscape:path-effect
       effect="skeletal"
       id="path-effect430"
       is_visible="true"
       lpeversion="1"
       pattern="m -4.8103497,-42.601265 h 7.3541666 l 1.3229167,1.322917 v 1.354166 l -1.3229167,1.322917 h -7.3541666 l -1.3229167,-1.322917 v -1.354166 z"
       copytype="repeated_stretched"
       prop_scale="1"
       scale_y_rel="false"
       spacing="0.3"
       normal_offset="0.1"
       tang_offset="0"
       prop_units="true"
       vertical_pattern="false"
       hide_knot="false"
       fuse_tolerance="0" />
    <inkscape:path-effect
       effect="fillet_chamfer"
       id="path-effect349"
       is_visible="true"
       lpeversion="1"
       nodesatellites_param="C,0,0,1,0,1.3229167,0,1 @ C,0,0,1,0,1.3229167,0,1 @ C,0,0,1,0,1.3229167,0,1 @ C,0,0,1,0,1.3229167,0,1"
       unit="px"
       method="auto"
       mode="F"
       radius="5"
       chamfer_steps="1"
       flexible="false"
       use_knot_distance="true"
       apply_no_radius="true"
       apply_with_radius="true"
       only_selected="false"
       hide_knots="false" />
    <linearGradient
       id="linearGradient14738"
       inkscape:swatch="solid">
      <stop
         style="stop-color:#000000;stop-opacity:1;"
         offset="0"
         id="stop14736" />
    </linearGradient>
    <linearGradient
       id="linearGradient8810"
       inkscape:swatch="gradient">
      <stop
         style="stop-color:#00dbff;stop-opacity:1;"
         offset="0"
         id="stop8806" />
      <stop
         style="stop-color:#00dbff;stop-opacity:0;"
         offset="1"
         id="stop8808" />
    </linearGradient>
    <linearGradient
       id="linearGradient8790"
       inkscape:swatch="gradient">
      <stop
         style="stop-color:#ac9393;stop-opacity:1;"
         offset="0"
         id="stop8786" />
      <stop
         style="stop-color:#ac9393;stop-opacity:0;"
         offset="1"
         id="stop8788" />
    </linearGradient>
    <linearGradient
       id="linearGradient8766"
       inkscape:swatch="gradient">
      <stop
         style="stop-color:#000000;stop-opacity:1;"
         offset="0"
         id="stop8762" />
      <stop
         style="stop-color:#000000;stop-opacity:0;"
         offset="1"
         id="stop8764" />
    </linearGradient>
    <linearGradient
       id="linearGradient8758"
       inkscape:swatch="gradient">
      <stop
         style="stop-color:#000000;stop-opacity:1;"
         offset="0"
         id="stop8754" />
      <stop
         style="stop-color:#000000;stop-opacity:0;"
         offset="1"
         id="stop8756" />
    </linearGradient>
    <linearGradient
       id="linearGradient8718"
       inkscape:swatch="gradient">
      <stop
         style="stop-color:#00dbff;stop-opacity:1;"
         offset="0"
         id="stop8726" />
      <stop
         style="stop-color:#0066ff;stop-opacity:1;"
         offset="1"
         id="stop8728" />
    </linearGradient>
    <inkscape:path-effect
       effect="fillet_chamfer"
       id="path-effect4968"
       is_visible="true"
       lpeversion="1"
       nodesatellites_param="C,0,0,1,0,2.6458333,0,1 @ C,0,0,1,0,2.6458333,0,1 @ C,0,0,1,0,0,0,1 @ C,0,0,1,0,0,0,1"
       unit="px"
       method="auto"
       mode="C"
       radius="10"
       chamfer_steps="1"
       flexible="false"
       use_knot_distance="true"
       apply_no_radius="true"
       apply_with_radius="true"
       only_selected="false"
       hide_knots="false" />
    <inkscape:path-effect
       effect="skeletal"
       id="path-effect1130"
       is_visible="true"
       lpeversion="1"
       pattern="m 32.407902,-71.675049 a 5,5 0 0 1 -5,5 5,5 0 0 1 -5,-5 5,5 0 0 1 5,-5 5,5 0 0 1 5,5 z"
       copytype="repeated_stretched"
       prop_scale="1"
       scale_y_rel="false"
       spacing="3.5"
       normal_offset="-1.3"
       tang_offset="3.5"
       prop_units="false"
       vertical_pattern="false"
       hide_knot="false"
       fuse_tolerance="0" />
    <inkscape:path-effect
       effect="skeletal"
       id="path-effect1130-7"
       is_visible="true"
       lpeversion="1"
       pattern="#path920"
       copytype="repeated_stretched"
       prop_scale="1"
       scale_y_rel="false"
       spacing="0"
       normal_offset="0"
       tang_offset="0"
       prop_units="false"
       vertical_pattern="false"
       hide_knot="false"
       fuse_tolerance="0" />
    <inkscape:path-effect
       effect="fillet_chamfer"
       id="path-effect349-6"
       is_visible="true"
       lpeversion="1"
       nodesatellites_param="C,0,0,1,0,1.3229167,0,1 @ C,0,0,1,0,1.3229167,0,1 @ C,0,0,1,0,1.3229167,0,1 @ C,0,0,1,0,1.3229167,0,1"
       unit="px"
       method="auto"
       mode="F"
       radius="5"
       chamfer_steps="1"
       flexible="false"
       use_knot_distance="true"
       apply_no_radius="true"
       apply_with_radius="true"
       only_selected="false"
       hide_knots="false" />
    <inkscape:path-effect
       effect="fillet_chamfer"
       id="path-effect349-5"
       is_visible="true"
       lpeversion="1"
       nodesatellites_param="C,0,0,1,0,1.3229167,0,1 @ C,0,0,1,0,1.3229167,0,1 @ C,0,0,1,0,1.3229167,0,1 @ C,0,0,1,0,1.3229167,0,1"
       unit="px"
       method="auto"
       mode="F"
       radius="5"
       chamfer_steps="1"
       flexible="false"
       use_knot_distance="true"
       apply_no_radius="true"
       apply_with_radius="true"
       only_selected="false"
       hide_knots="false" />
    <inkscape:path-effect
       effect="skeletal"
       id="path-effect430-2"
       is_visible="true"
       lpeversion="1"
       pattern="M 0,0 H 1"
       copytype="repeated_stretched"
       prop_scale="1"
       scale_y_rel="false"
       spacing="0"
       normal_offset="0"
       tang_offset="0"
       prop_units="false"
       vertical_pattern="false"
       hide_knot="false"
       fuse_tolerance="0" />
    <inkscape:path-effect
       effect="skeletal"
       id="path-effect430-2-2"
       is_visible="true"
       lpeversion="1"
       pattern="M 0,0 H 1"
       copytype="repeated_stretched"
       prop_scale="1"
       scale_y_rel="false"
       spacing="0"
       normal_offset="0"
       tang_offset="0"
       prop_units="false"
       vertical_pattern="false"
       hide_knot="false"
       fuse_tolerance="0" />
    <inkscape:path-effect
       effect="skeletal"
       id="path-effect430-2-7"
       is_visible="true"
       lpeversion="1"
       pattern="M 0,0 H 1"
       copytype="repeated_stretched"
       prop_scale="1"
       scale_y_rel="false"
       spacing="0"
       normal_offset="0"
       tang_offset="0"
       prop_units="false"
       vertical_pattern="false"
       hide_knot="false"
       fuse_tolerance="0" />
    <inkscape:path-effect
       effect="skeletal"
       id="path-effect1130-8"
       is_visible="true"
       lpeversion="1"
       pattern="m 32.407902,-71.675049 a 5,5 0 0 1 -5,5 5,5 0 0 1 -5,-5 5,5 0 0 1 5,-5 5,5 0 0 1 5,5 z"
       copytype="repeated_stretched"
       prop_scale="1"
       scale_y_rel="false"
       spacing="3.5"
       normal_offset="-1.3"
       tang_offset="3.5"
       prop_units="false"
       vertical_pattern="false"
       hide_knot="false"
       fuse_tolerance="0" />
    <inkscape:path-effect
       effect="skeletal"
       id="path-effect430-8"
       is_visible="true"
       lpeversion="1"
       pattern="m -4.8103497,-42.601265 h 7.3541666 l 1.3229167,1.322917 v 1.354166 l -1.3229167,1.322917 h -7.3541666 l -1.3229167,-1.322917 v -1.354166 z"
       copytype="repeated_stretched"
       prop_scale="1"
       scale_y_rel="false"
       spacing="0.3"
       normal_offset="0.3"
       tang_offset="0"
       prop_units="true"
       vertical_pattern="false"
       hide_knot="false"
       fuse_tolerance="0" />
    <linearGradient
       inkscape:collect="always"
       xlink:href="#linearGradient8718"
       id="linearGradient6959"
       x1="-33.779568"
       y1="-12.781144"
       x2="95.911224"
       y2="-12.781144"
       gradientUnits="userSpaceOnUse" />
  </defs>
  <g
     inkscape:label="Layer 1"
     inkscape:groupmode="layer"
     id="layer1"
     transform="translate(-56.882612,-56.264266)">
    <g
       inkscape:label="Rendered Gears"
       transform="translate(90.662175,133.97505)"
       id="g629">
      <circle
         style="fill:#f1f1f1;fill-opacity:1;stroke:none;stroke-width:12.7907;stroke-linecap:round;stroke-linejoin:round;stroke-miterlimit:5.83333;stroke-dasharray:none;stroke-opacity:1"
         id="path5027-7-3"
         cx="12.782237"
         cy="30.911453"
         transform="rotate(-90)"
         r="55" />
      <path
         style="fill:#7f7f7f;fill-opacity:1;stroke:none;stroke-width:5;stroke-linecap:round;stroke-linejoin:round;stroke-miterlimit:5.83333;stroke-dasharray:none;stroke-opacity:1"
         id="path5027-9"
         transform="rotate(-90)"
         inkscape:path-effect="#path-effect430-2"
         sodipodi:type="arc"
         sodipodi:cx="12.328815"
         sodipodi:cy="30.983644"
         sodipodi:rx="26.595745"
         sodipodi:ry="26.595747"
         d="m 38.924561,30.983644 c 0,0.333545 -0.0073,0.66637 -0.02165,0.998318 -0.01438,0.331948 -0.03588,0.663019 -0.06432,0.993056 -0.02845,0.330037 -0.06385,0.65904 -0.106054,0.986852 -0.0422,0.327813 -0.0912,0.654435 -0.146845,0.979709 -0.05564,0.325274 -0.117925,0.6492 -0.186693,0.971623 -0.06877,0.322422 -0.144021,0.643339 -0.225602,0.962596 -0.08158,0.319256 -0.169489,0.636851 -0.263568,0.952628 -0.09408,0.315777 -0.19433,0.629736 -0.300595,0.94172 -0.106264,0.311984 -0.218543,0.621992 -0.336678,0.929869 -0.118136,0.307877 -0.242129,0.613622 -0.371823,0.917079 -0.129693,0.303456 -0.265087,0.604624 -0.406024,0.903346 -0.140937,0.298722 -0.287418,0.594998 -0.439286,0.888672 -0.151867,0.293674 -0.309121,0.584746 -0.471605,0.873058 -0.162484,0.288312 -0.330198,0.573865 -0.502985,0.856502 -0.172787,0.282637 -0.350646,0.562358 -0.533422,0.839005 -0.182776,0.276648 -0.370468,0.550223 -0.562919,0.820568 -0.192451,0.270344 -0.389661,0.537459 -0.591474,0.801188 -0.201813,0.263728 -0.408228,0.524069 -0.619088,0.780867 -0.210861,0.256798 -0.426167,0.510052 -0.645762,0.759606 -0.219595,0.249554 -0.443478,0.495407 -0.671493,0.737403 -0.228015,0.241997 -0.460163,0.480135 -0.696284,0.71426 -0.236122,0.234125 -0.476219,0.464235 -0.720134,0.690175 -0.243915,0.225939 -0.491649,0.447707 -0.743043,0.665148 -0.251394,0.217441 -0.50645,0.430553 -0.76501,0.639181 -0.25856,0.208628 -0.520624,0.412771 -0.786036,0.612273 -0.265411,0.199502 -0.534171,0.394362 -0.806121,0.584423 -0.27195,0.190062 -0.54709,0.375325 -0.825265,0.555633 -0.278174,0.180308 -0.559382,0.35566 -0.843468,0.525901 -0.284085,0.17024 -0.571047,0.335368 -0.860729,0.495227 -0.289682,0.15986 -0.582084,0.31445 -0.87705,0.463614 -0.294965,0.149164 -0.592494,0.292903 -0.892429,0.431058 -0.299935,0.138156 -0.602277,0.270729 -0.906868,0.397562 -0.304591,0.126833 -0.611431,0.247927 -0.920364,0.363124 -0.308933,0.115198 -0.619959,0.224498 -0.93292,0.327746 -0.312962,0.103247 -0.627859,0.200442 -0.944536,0.291426 -0.316676,0.09098 -0.635131,0.175757 -0.955208,0.254164 -0.320078,0.07841 -0.641777,0.150447 -0.964941,0.215963 -0.323165,0.06551 -0.647795,0.124507 -0.973733,0.176819 -0.325938,0.05231 -0.653185,0.09794 -0.981583,0.136734 -0.328398,0.03879 -0.657947,0.07075 -0.988491,0.09571 -0.330544,0.02496 -0.662083,0.04293 -0.99446,0.05374 -0.249278,0.0081 -0.499028,0.0122 -0.749184,0.0122 -0.08339,0 -0.166734,-4.54e-4 -0.250032,-0.0014 -0.333175,-0.0036 -0.665591,-0.01448 -0.99709,-0.03241 -0.3315,-0.01793 -0.662083,-0.04293 -0.991593,-0.07484 C 9.7605894,57.438863 9.4321523,57.400031 9.1049451,57.354439 8.7777378,57.308848 8.4517605,57.256497 8.12717,57.197544 7.8025795,57.138591 7.4793758,57.073036 7.1577158,57.001035 6.8360557,56.929034 6.5159393,56.850588 6.1975234,56.765853 5.8791075,56.681118 5.5623921,56.590094 5.2475341,56.492939 4.932676,56.395784 4.6196754,56.292497 4.3086889,56.183235 3.9977025,56.073973 3.6887303,55.958736 3.3819291,55.837682 3.075128,55.716627 2.770498,55.589754 2.4681958,55.45722 2.1658937,55.324686 1.8659195,55.186491 1.5684302,55.042792 1.2709408,54.899092 0.97593621,54.749889 0.68357328,54.595338 c -0.29236293,-0.154552 -0.5820842,-0.31445 -0.86900696,-0.479539 -0.28692276,-0.16509 -0.571047,-0.335369 -0.85221592,-0.510683 -0.2811688,-0.175314 -0.5593823,-0.355661 -0.8344836,-0.540885 -0.2751013,-0.185224 -0.5470903,-0.375325 -0.8158103,-0.570146 -0.26872,-0.194821 -0.5341708,-0.394362 -0.7961958,-0.598466 -0.2620249,-0.204105 -0.5206239,-0.412772 -0.77564,-0.625846 -0.2550162,-0.213073 -0.5064496,-0.430553 -0.7541433,-0.652283 -0.2476937,-0.221729 -0.4916478,-0.447708 -0.7317053,-0.67778 -0.2400576,-0.230071 -0.4762186,-0.464235 -0.7083262,-0.702335 -0.2321077,-0.2381 -0.460162,-0.480135 -0.684006,-0.725949 -0.223844,-0.245815 -0.4434778,-0.495408 -0.6587445,-0.748623 -0.2152667,-0.253215 -0.4261664,-0.510053 -0.632542,-0.770355 -0.2063757,-0.260302 -0.4082274,-0.52407 -0.6053983,-0.791146 -0.1971709,-0.267076 -0.389661,-0.53746 -0.5773135,-0.810996 -0.1876524,-0.273535 -0.3704672,-0.550222 -0.5482876,-0.829904 -0.17782,-0.279681 -0.350646,-0.562358 -0.51832,-0.847871 -0.167674,-0.285514 -0.330197,-0.573866 -0.487412,-0.864898 -0.157215,-0.291033 -0.309121,-0.584746 -0.455563,-0.880984 -0.146441,-0.296237 -0.287417,-0.594998 -0.422772,-0.896127 -0.135354,-0.301128 -0.265086,-0.604624 -0.38904,-0.91033 -0.123954,-0.305706 -0.242128,-0.613622 -0.354367,-0.923592 -0.112239,-0.30997 -0.218543,-0.621993 -0.318754,-0.935912 -0.100211,-0.31392 -0.194329,-0.629736 -0.282198,-0.947292 -0.08787,-0.317556 -0.169488,-0.636852 -0.244702,-0.95773 -0.07521,-0.320879 -0.14402,-0.64334 -0.206264,-0.967228 -0.06224,-0.323887 -0.117925,-0.649201 -0.166886,-0.975783 -0.04896,-0.326583 -0.0912,-0.654434 -0.126566,-0.983398 -0.03536,-0.328964 -0.06385,-0.659041 -0.0853,-0.990072 -0.02145,-0.331032 -0.03587,-0.663019 -0.0431,-0.995805 -0.0036,-0.166385 -0.0054,-0.33297 -0.0054,-0.499736 0,-0.166779 0.0018,-0.333379 0.0054,-0.499779 0.0072,-0.332786 0.02165,-0.664773 0.04311,-0.995805 0.02145,-0.331031 0.04994,-0.661107 0.08531,-0.990071 0.03536,-0.328964 0.07761,-0.656816 0.126568,-0.983398 0.04896,-0.326583 0.104643,-0.651896 0.166887,-0.975783 0.06224,-0.323887 0.131052,-0.646349 0.206266,-0.967227 0.07521,-0.320879 0.156834,-0.640174 0.244704,-0.95773 0.08787,-0.317556 0.181988,-0.633372 0.2822,-0.947291 0.100211,-0.31392 0.206515,-0.625943 0.318755,-0.935912 0.112239,-0.30997 0.230414,-0.617886 0.354368,-0.923592 0.123955,-0.305705 0.253687,-0.609201 0.389042,-0.910329 0.135355,-0.301128 0.276332,-0.59989 0.422774,-0.896127 0.146442,-0.296237 0.298349,-0.58995 0.455564,-0.880982 0.157215,-0.291032 0.319738,-0.579384 0.487413,-0.864897 0.167675,-0.285514 0.340501,-0.56819 0.518322,-0.847871 0.1778205,-0.279682 0.3606357,-0.556369 0.5482885,-0.829904 0.1876529,-0.273535 0.3801434,-0.543919 0.5773147,-0.810995 0.1971714,-0.267075 0.3990235,-0.530842 0.6053995,-0.791144 0.2063761,-0.260303 0.4172761,-0.51714 0.6325432,-0.770354 0.2152671,-0.253215 0.4349013,-0.502808 0.6587457,-0.748622 0.2238444,-0.245814 0.451899,-0.487849 0.684007,-0.725949 0.232108,-0.238099 0.4682694,-0.472263 0.7083273,-0.702334 0.2400579,-0.230071 0.4840123,-0.45605 0.7317063,-0.677779 0.2476941,-0.221729 0.4991278,-0.439208 0.7541443,-0.652282 0.2550165,-0.213073 0.5136158,-0.42174 0.775641,-0.625844 0.2620252,-0.2041034 0.5274764,-0.4036441 0.7961967,-0.5984647 0.2687202,-0.1948206 0.5407095,-0.3849212 0.8158111,-0.5701449 0.2751015,-0.1852237 0.5533153,-0.3655706 0.8344844,-0.5408837 0.28116918,-0.175313 0.56529368,-0.3455924 0.85221668,-0.5106811 C 0.10152739,7.6863798 0.3912489,7.5264817 0.68361206,7.371931 0.97597522,7.2173803 1.27098,7.068177 1.5684696,6.9244781 1.8659592,6.7807792 2.1659336,6.6425846 2.4682359,6.5100511 2.7705383,6.3775177 3.0751685,6.2506454 3.3819698,6.1295912 3.6887712,6.008537 3.9977436,5.8933007 4.3087302,5.7840394 4.6197168,5.6747781 4.9327176,5.5714917 5.2475758,5.474337 5.562434,5.3771823 5.8791496,5.2861594 6.1975656,5.201425 6.5159817,5.1166907 6.8360982,5.038245 7.1577584,4.9662447 7.4794186,4.8942445 7.8026225,4.8286896 8.1272131,4.7697372 8.4518037,4.7107847 8.7777811,4.6584345 9.1049885,4.6128435 9.4321958,4.5672525 9.7606331,4.5284207 10.090143,4.496505 c 0.329511,-0.031916 0.660094,-0.056916 0.991594,-0.074842 0.331499,-0.017927 0.663915,-0.028781 0.99709,-0.032405 0.08328,-9.059e-4 0.166613,-0.00136 0.249988,-0.00136 0.25017,0 0.499935,0.00409 0.749228,0.012201 0.332377,0.010816 0.663916,0.028783 0.99446,0.053744 0.330544,0.024961 0.660093,0.056917 0.988491,0.095711 0.328398,0.038793 0.655644,0.084425 0.981582,0.1367364 0.325938,0.052312 0.650568,0.1113044 0.973732,0.1768209 0.323165,0.065516 0.644864,0.1375567 0.964941,0.2159641 0.320077,0.078407 0.638532,0.1631817 0.955208,0.2541663 0.316676,0.090985 0.631574,0.1881793 0.944535,0.2914273 0.312961,0.103248 0.623987,0.2125493 0.93292,0.3277471 0.308933,0.1151978 0.615773,0.236292 0.920364,0.3631258 0.304591,0.1268338 0.606932,0.2594072 0.906867,0.3975634 0.299934,0.1381561 0.597463,0.281895 0.892428,0.4310597 0.294965,0.1491647 0.587367,0.3037554 0.877049,0.463615 0.289682,0.1598596 0.576644,0.3249883 0.860729,0.4952291 0.284085,0.1702408 0.565293,0.3455938 0.843467,0.5259021 0.278174,0.1803082 0.553315,0.3655718 0.825264,0.5556338 0.27195,0.190062 0.540709,0.3849225 0.806121,0.5844245 0.265411,0.1995021 0.527475,0.4036457 0.786035,0.6122737 0.258559,0.208629 0.513615,0.421742 0.765009,0.639183 0.251394,0.217441 0.499126,0.43921 0.743041,0.665149 0.243915,0.22594 0.484011,0.456051 0.720133,0.690176 0.236121,0.234125 0.468268,0.472264 0.696283,0.714261 0.228015,0.241996 0.451898,0.48785 0.671492,0.737404 0.219595,0.249554 0.4349,0.502809 0.645761,0.759607 0.21086,0.256798 0.417275,0.51714 0.619087,0.780868 0.201812,0.263729 0.399022,0.530844 0.591473,0.801189 0.19245,0.270345 0.380142,0.54392 0.562917,0.820568 0.182776,0.276648 0.360635,0.556369 0.533421,0.839006 0.172786,0.282637 0.3405,0.568191 0.502983,0.856503 0.162484,0.288313 0.319737,0.579384 0.471604,0.873059 0.151867,0.293674 0.298348,0.589951 0.439285,0.888673 0.140936,0.298722 0.27633,0.59989 0.406023,0.903347 0.129693,0.303456 0.253685,0.609201 0.37182,0.917078 0.118136,0.307878 0.230414,0.617887 0.336678,0.929871 0.106263,0.311984 0.206513,0.625943 0.300592,0.94172 0.09408,0.315777 0.181987,0.633372 0.263567,0.952629 0.08158,0.319256 0.156832,0.640174 0.2256,0.962596 0.06877,0.322422 0.13105,0.646349 0.186692,0.971623 0.05564,0.325275 0.104641,0.651896 0.146842,0.979709 0.0422,0.327813 0.0776,0.656816 0.106053,0.986853 0.02845,0.330037 0.04994,0.661108 0.06432,0.993056 0.01438,0.331948 0.02165,0.664773 0.02165,0.998318"
         class="UnoptimicedTransforms" />
      <circle
         style="fill:#f1f1f1;fill-opacity:1;stroke:none;stroke-width:4.4186;stroke-linecap:round;stroke-linejoin:round;stroke-miterlimit:5.83333;stroke-dasharray:none;stroke-opacity:1"
         id="path5027-7"
         cx="12.328836"
         cy="30.983644"
         transform="rotate(-90)"
         r="19" />
      <path
         id="use5144"
         style="fill:url(#linearGradient6959);fill-opacity:1;stroke-width:1.07332;stroke-linecap:round;stroke-linejoin:round;stroke-miterlimit:5.83333"
         d="m 27.907107,-77.710773 c -1.526894,0.07059 -3.046037,0.196845 -4.555794,0.373621 0.280458,3.190103 -2.003264,6.361637 -4.874638,7.075537 -2.979152,0.740693 -6.539951,-0.962725 -7.72511,-4.23385 -0.0086,-0.02375 -0.01341,-0.04803 -0.0217,-0.07183 -1.4481675,0.473082 -2.8782237,0.997778 -4.2886272,1.570964 0.032264,0.066 0.069746,0.128233 0.099736,0.195854 1.4095873,3.17816 0.030171,6.896474 -2.6809733,8.436694 -2.7174936,1.543825 -6.6231595,0.815148 -8.623763,-2.06189 -0.1107964,-0.159334 -0.2094833,-0.324009 -0.3028239,-0.490409 -1.2934114,0.859612 -2.5576314,1.768215 -3.7909831,2.722314 0.1528299,0.154009 0.2990789,0.317396 0.4366659,0.49041 2.1800149,2.74135 1.7685741,6.710629 -0.51108,8.891963 -2.2801164,2.18178 -6.2629144,2.415283 -8.9033324,0.109554 -0.180234,-0.157387 -0.346669,-0.325084 -0.503845,-0.499194 -1.022848,1.187495 -1.998693,2.408988 -2.928503,3.660759 0.1867,0.112863 0.368685,0.23623 0.545186,0.371553 2.782718,2.133516 3.333018,6.076289 1.65933,8.727633 -1.670411,2.646153 -5.454793,3.846068 -8.562784,2.280481 -0.112736,-0.05678 -0.217853,-0.123449 -0.325562,-0.186552 -0.650477,1.389132 -1.252955,2.800373 -1.803507,4.231783 0.07606,0.02837 0.153518,0.04993 0.228926,0.08165 3.210168,1.350022 4.729993,4.997066 3.829224,7.942667 -0.881793,2.883537 -4.267824,5.018914 -7.478615,4.469495 -0.253149,1.496709 -0.455948,3.004556 -0.604097,4.522205 3.193874,0.485045 5.755259,3.507853 5.783626,6.500895 v 10e-4 c -0.02761,2.9817093 -2.569101,5.9926592 -5.745902,6.4957278 0.156686,1.5167559 0.364202,3.0247494 0.625801,4.5201375 3.193198,-0.5136233 6.543702,1.61133964 7.420219,4.4772461 0.900884,2.9455735 -0.619616,6.5925297 -3.82974,7.9426676 -0.03361,0.01413 -0.06807,0.02323 -0.101803,0.03669 0.555031,1.420292 1.15863,2.821126 1.812293,4.199227 0.06419,-0.03538 0.124267,-0.07583 0.190169,-0.109037 3.107944,-1.565697 6.892283,-0.365624 8.562785,2.280481 1.673777,2.65129 1.123837,6.594025 -1.658814,8.727633 -0.116945,0.08967 -0.23966,0.167201 -0.361218,0.247013 0.926228,1.234723 1.897351,2.439698 2.914551,3.611149 0.108316,-0.110566 0.215634,-0.221825 0.33383,-0.325045 2.640343,-2.305812 6.623147,-2.072668 8.9033327,0.109037 2.2797222,2.181266 2.6910048,6.150546 0.5110799,8.891964 -0.07611,0.09572 -0.1599241,0.181892 -0.2408121,0.271818 1.2229388,0.9386 2.4759798,1.832298 3.7573934,2.67839 0.047743,-0.07569 0.089556,-0.153797 0.1410766,-0.227893 2.000508,-2.877103 5.9062238,-3.606137 8.623763,-2.062407 2.6790547,1.521869 4.0525382,5.170191 2.7248983,8.323006 1.4056588,0.567308 2.830716,1.085911 4.2736402,1.553911 1.274959,-3.101448 4.718647,-4.700375 7.61814,-3.979602 2.762193,0.686639 4.986249,3.647697 4.902026,6.711735 1.51861,0.177109 3.046774,0.302394 4.582666,0.37207 0.342763,-1.959288 1.58105,-3.691263 3.191537,-4.704106 0.902327,-0.553974 1.897949,-0.866528 2.917134,-0.91829 2.835914,-0.144031 5.836837,2.007477 6.686414,4.939234 1.508399,-0.231184 3.005927,-0.5131 4.489132,-0.848527 -0.493875,-3.175209 1.431842,-6.264712 4.159952,-7.257955 2.831613,-1.030929 6.435311,0.223558 8.009847,3.206522 1.385376,-0.618731 2.75013,-1.284461 4.09019,-1.999361 -1.621109,-3.016382 -0.599734,-6.783052 1.938383,-8.556584 2.57593,-1.799952 6.5414,-1.427719 8.799463,1.257805 0.0188,0.02236 0.03377,0.04668 0.05219,0.06925 1.174508,-0.969935 2.31935,-1.982003 3.429248,-3.038574 -0.0273,-0.0275 -0.05737,-0.05095 -0.08423,-0.07906 -2.423132,-2.536507 -2.368239,-6.527556 -0.293006,-8.903332 2.073973,-2.374337 6.01626,-2.964583 8.849589,-0.91364 0.0052,0.0038 0.0097,0.0081 0.01499,0.01189 0.871445,-1.248824 1.699089,-2.524822 2.478402,-3.827674 -2.91794,-1.876894 -3.807165,-5.708366 -2.409672,-8.471834 1.348251,-2.6660983 4.761567,-4.2039738 7.901327,-3.2096231 0.506225,-1.4301792 0.964476,-2.8781413 1.369942,-4.3423706 -3.015183,-1.1918403 -4.691355,-4.45995302 -4.146,-7.3189331 0.526656,-2.760968 3.299821,-5.1239129 6.327779,-5.2637614 0.115947,-1.5793262 0.175183,-3.1677068 0.175183,-4.7619828 0,-1.47119 -0.05362,-2.936435 -0.152446,-4.395081 -3.036991,-0.128661 -5.822922,-2.496792 -6.351033,-5.264795 -0.550734,-2.886563 1.164561,-6.18831 4.234883,-7.350972 -0.397587,-1.466011 -0.847219,-2.915671 -1.345654,-4.348055 -3.170617,1.068842 -6.65037,-0.474129 -8.015014,-3.172417 -1.406392,-2.78083 -0.499084,-6.645146 2.462898,-8.509041 0.03424,-0.02154 0.07037,-0.03762 0.104903,-0.05839 -0.777828,-1.314664 -1.604023,-2.602521 -2.475301,-3.862814 -0.05984,0.04689 -0.114724,0.09825 -0.176733,0.143144 -2.833265,2.051038 -6.775022,1.460632 -8.849072,-0.913639 -2.07531,-2.375714 -2.130558,-6.366744 0.292488,-8.903333 0.08804,-0.09217 0.183345,-0.173467 0.275952,-0.258899 -1.116974,-1.07204 -2.268834,-2.099221 -3.451985,-3.083016 -0.07292,0.09841 -0.141461,0.199228 -0.221175,0.294039 -2.257977,2.685597 -6.223996,3.05767 -8.79998,1.257805 -2.57195,-1.797049 -3.591592,-5.642208 -1.877405,-8.678024 0.03097,-0.05483 0.06828,-0.10409 0.100769,-0.157613 -1.343304,-0.721468 -2.711353,-1.393326 -4.100525,-2.017964 -0.01144,0.02486 -0.01914,0.05068 -0.03101,0.07545 -1.50749,3.146546 -5.227615,4.485912 -8.130253,3.429248 -2.828572,-1.029705 -4.790369,-4.313 -4.091223,-7.608838 -1.47776,-0.335837 -2.969721,-0.618258 -4.472595,-0.850594 -0.701977,3.109755 -3.823451,5.442311 -6.77168,5.2927 -1.018388,-0.05168 -2.013261,-0.363604 -2.915067,-0.916739 -1.710979,-1.075069 -3.003624,-2.961525 -3.247864,-5.070492 z m 12.003918,13.206429 A 52.499999,52.499999 0 0 1 83.411213,-12.782436 52.499999,52.499999 0 0 1 80.196939,5.2929461 L 64.725531,-3.639842 66.402432,-6.5440575 65.434015,-10.158307 61.918984,-12.187641 A 31,31 0 0 1 57.777118,2.7411638 31,31 0 0 1 46.924551,13.795786 l 3.509346,2.026233 3.61425,-0.968416 1.677417,-2.904732 15.467273,8.930204 A 52.499999,52.499999 0 0 1 30.911058,39.717718 52.499999,52.499999 0 0 1 -9.3913915,20.794842 L 6.0872502,11.85792 7.7641504,14.762652 11.3784,15.731069 14.892914,13.701735 A 31,31 0 0 1 4.0356959,2.6502133 31,31 0 0 1 -0.1118546,-12.276007 l -3.5098633,2.026233 -0.9684163,3.6142492 1.677417,2.905249 -15.4662398,8.9291708 a 52.499999,52.499999 0 0 1 -3.209623,-17.981331 52.499999,52.499999 0 0 1 43.499671,-51.691419 v 17.864026 H 18.55729 l -2.645833,2.645833 v 4.058667 a 31,31 0 0 1 14.999601,-3.877282 31,31 0 0 1 15.000118,3.871081 v -4.052466 l -2.645833,-2.645833 h -3.354318 z" />
      <rect
         style="fill:#eb7829;fill-opacity:1;stroke-width:1;stroke-linecap:round;stroke-linejoin:round;stroke-miterlimit:5.83333"
         id="use5146"
         width="26.230436"
         height="1.5"
         x="-39.629742"
         y="-70.388603"
         ry="0.75"
         rx="0"
         transform="rotate(120)" />
      <rect
         style="fill:#eb7829;fill-opacity:1;stroke-width:1;stroke-linecap:round;stroke-linejoin:round;stroke-miterlimit:5.83333"
         id="use5148"
         width="26.230436"
         height="1.5"
         x="-39.629742"
         y="-67.29464"
         ry="0.75"
         rx="0"
         transform="rotate(120)" />
      <rect
         style="fill:#eb7829;fill-opacity:1;stroke-width:1;stroke-linecap:round;stroke-linejoin:round;stroke-miterlimit:5.83333"
         id="use5150"
         width="26.230436"
         height="1.5"
         x="-39.629742"
         y="-64.200676"
         ry="0.75"
         rx="0"
         transform="rotate(120)" />
      <rect
         style="fill:#eb7829;fill-opacity:1;stroke-width:1;stroke-linecap:round;stroke-linejoin:round;stroke-miterlimit:5.83333"
         id="use5152"
         width="26.230436"
         height="1.5"
         x="-39.629742"
         y="-61.106709"
         ry="0.75"
         rx="0"
         transform="rotate(120)" />
      <rect
         style="fill:#eb7829;fill-opacity:1;stroke-width:1;stroke-linecap:round;stroke-linejoin:round;stroke-miterlimit:5.83333"
         id="use5154"
         width="26.230436"
         height="1.5"
         x="-39.629742"
         y="-58.012745"
         ry="0.75"
         rx="0"
         transform="rotate(120)" />
      <rect
         style="fill:#eb7829;fill-opacity:1;stroke-width:1;stroke-linecap:round;stroke-linejoin:round;stroke-miterlimit:5.83333"
         id="rect1408-37"
         width="26.230436"
         height="1.5"
         x="-17.42795"
         y="-16.812008"
         ry="0.75"
         rx="0"
         transform="rotate(-119.99999)" />
      <rect
         style="fill:#eb7829;fill-opacity:1;stroke-width:1;stroke-linecap:round;stroke-linejoin:round;stroke-miterlimit:5.83333"
         id="rect1408-3-5"
         width="26.230436"
         height="1.5"
         x="-17.42795"
         y="-13.718044"
         ry="0.75"
         rx="0"
         transform="rotate(-119.99999)" />
      <rect
         style="fill:#eb7829;fill-opacity:1;stroke-width:1;stroke-linecap:round;stroke-linejoin:round;stroke-miterlimit:5.83333"
         id="rect1408-5-9"
         width="26.230436"
         height="1.5"
         x="-17.42795"
         y="-10.624077"
         ry="0.75"
         rx="0"
         transform="rotate(-119.99999)" />
      <rect
         style="fill:#eb7829;fill-opacity:1;stroke-width:1;stroke-linecap:round;stroke-linejoin:round;stroke-miterlimit:5.83333"
         id="rect1408-6-2"
         width="26.230436"
         height="1.5"
         x="-17.42795"
         y="-7.5301132"
         ry="0.75"
         rx="0"
         transform="rotate(-119.99999)" />
      <rect
         style="fill:#eb7829;fill-opacity:1;stroke-width:1;stroke-linecap:round;stroke-linejoin:round;stroke-miterlimit:5.83333"
         id="rect1408-2-28"
         width="26.230436"
         height="1.5"
         x="-17.42795"
         y="-4.4361496"
         ry="0.75"
         rx="0"
         transform="rotate(-119.99999)" />
      <ellipse
         style="fill:#ff0000;stroke-width:0;stroke-linecap:round;stroke-linejoin:round;stroke-miterlimit:5.83333"
         id="path920-3"
         cx="18.582741"
         cy="-44.142757"
         rx="40"
         ry="0"
         transform="scale(-1,1)" />
      <ellipse
         style="fill:#ff0000;stroke-width:0;stroke-linecap:round;stroke-linejoin:round;stroke-miterlimit:5.83333"
         id="path920-6"
         cx="-53.10062"
         cy="-42.413727"
         rx="40"
         ry="0"
         transform="scale(-1,1)" />
      <rect
         style="fill:#eb7829;fill-opacity:1;stroke-width:1;stroke-linecap:round;stroke-linejoin:round;stroke-miterlimit:5.83333"
         id="rect1408"
         width="26.230436"
         height="1.5"
         x="17.796141"
         y="-62.764217"
         ry="0.75"
         rx="0" />
      <rect
         style="fill:#eb7829;fill-opacity:1;stroke-width:1;stroke-linecap:round;stroke-linejoin:round;stroke-miterlimit:5.83333"
         id="rect1408-3"
         width="26.230436"
         height="1.5"
         x="17.796141"
         y="-59.670254"
         ry="0.75"
         rx="0" />
      <rect
         style="fill:#eb7829;fill-opacity:1;stroke-width:1;stroke-linecap:round;stroke-linejoin:round;stroke-miterlimit:5.83333"
         id="rect1408-5"
         width="26.230436"
         height="1.5"
         x="17.796141"
         y="-56.576286"
         ry="0.75"
         rx="0" />
      <rect
         style="fill:#eb7829;fill-opacity:1;stroke-width:1;stroke-linecap:round;stroke-linejoin:round;stroke-miterlimit:5.83333"
         id="rect1408-6"
         width="26.230436"
         height="1.5"
         x="17.796141"
         y="-53.482323"
         ry="0.75"
         rx="0" />
      <rect
         style="fill:#eb7829;fill-opacity:1;stroke-width:1;stroke-linecap:round;stroke-linejoin:round;stroke-miterlimit:5.83333"
         id="rect1408-2"
         width="26.230436"
         height="1.5"
         x="17.796141"
         y="-50.388359"
         ry="0.75"
         rx="0" />
      <path
         style="fill:#000000;fill-opacity:1;stroke:none;stroke-width:5;stroke-linecap:round;stroke-linejoin:round;stroke-miterlimit:5.83333;stroke-dasharray:none;stroke-opacity:1"
         id="path5027"
         transform="rotate(-90)"
         inkscape:path-effect="#path-effect430"
         sodipodi:type="arc"
         sodipodi:cx="12.328815"
         sodipodi:cy="30.983644"
         sodipodi:rx="26.595745"
         sodipodi:ry="26.595747"
         d="m 40.469976,32.493219 c -0.183335,2.784791 -0.818977,5.495635 -1.830387,8.055991 -0.58733,0.299932 -1.178667,0.57323 -1.772318,0.820698 l -1.218587,-0.558866 c -0.209192,-0.590021 -0.43824,-1.163584 -0.686343,-1.718995 0.874373,-2.194544 1.411843,-4.500711 1.535869,-6.841962 0.460171,-0.394356 0.910491,-0.816236 1.349268,-1.266441 h 1.354166 c 0.440407,0.478068 0.863452,0.981824 1.268332,1.509575 z m -4.78955,13.652079 c -1.543257,2.284187 -3.403523,4.359127 -5.504257,6.148281 -0.663006,-0.0125 -1.317466,-0.04784 -1.961687,-0.105207 l -0.824124,-1.06718 c 0.08992,-0.624605 0.156186,-1.245305 0.199601,-1.860406 1.8263,-1.560739 3.450995,-3.368401 4.797544,-5.346446 0.605249,-0.109876 1.213199,-0.24348 1.822159,-0.401612 l 1.149452,0.698063 c 0.12853,0.632265 0.235901,1.277665 0.321312,1.934507 z m -10.733039,9.728978 c -2.424844,1.305246 -5.031397,2.265947 -7.743121,2.805564 -0.572308,-0.330649 -1.123517,-0.68034 -1.651935,-1.048269 l -0.182984,-1.328818 c 0.383311,-0.492816 0.739174,-0.994279 1.068389,-1.502696 2.299891,-0.4486 4.533474,-1.279421 6.624212,-2.415924 0.583952,0.180323 1.18316,0.340714 1.795928,0.480373 l 0.698063,1.149452 c -0.177628,0.620087 -0.380212,1.240758 -0.608552,1.860318 z M 10.819213,59.124805 C 8.0344219,58.941467 5.3235792,58.305822 2.7632241,57.294409 2.4632929,56.707079 2.1899949,56.115741 1.942528,55.522091 l 0.5588674,-1.218587 c 0.5900213,-0.209191 1.1635844,-0.438239 1.718996,-0.686341 2.1945423,0.874376 4.5007085,1.411848 6.8419596,1.535877 0.394356,0.460171 0.816235,0.910491 1.266439,1.349269 l 8e-6,1.354148 c -0.478078,0.440424 -0.981834,0.863469 -1.509585,1.268348 z M -2.832861,54.33524 c -2.2841851,-1.543259 -4.3591233,-3.403527 -6.1482755,-5.504263 0.0125,-0.663006 0.047837,-1.317466 0.1052091,-1.961687 l 1.0671806,-0.824122 c 0.6246054,0.08992 1.2453051,0.156187 1.8604058,0.199603 1.5607378,1.826301 3.368398,3.450997 5.34644168,4.797549 0.10987564,0.605249 0.24347826,1.213199 0.40161011,1.822159 L -0.89835386,54.01393 C -1.5306183,54.14246 -2.1760184,54.249831 -2.832861,54.33524 Z m -9.728967,-10.733049 c -1.305244,-2.424844 -2.265942,-5.031399 -2.805556,-7.743123 0.33065,-0.572308 0.680341,-1.123517 1.048271,-1.651934 l 1.328819,-0.182983 c 0.492815,0.383312 0.994278,0.739175 1.502694,1.06839 0.448598,2.299892 1.279416,4.533476 2.4159169,6.624215 -0.1803231,0.583952 -0.3407154,1.183159 -0.4803746,1.795928 l -1.1494533,0.698061 c -0.620087,-0.177629 -1.240757,-0.380212 -1.860317,-0.608554 z m -3.250513,-14.128177 c 0.183341,-2.784791 0.818989,-5.495633 1.830404,-8.055987 0.587331,-0.299931 1.178668,-0.573228 1.772319,-0.820695 l 1.218587,0.558869 c 0.20919,0.590021 0.438237,1.163585 0.686339,1.718997 -0.874378,2.194541 -1.411853,4.500707 -1.535885,6.841958 -0.460171,0.394355 -0.910492,0.816234 -1.34927,1.266437 l -1.354166,-3e-6 c -0.440406,-0.478068 -0.86345,-0.981825 -1.268328,-1.509576 z m 4.789578,-13.65207 c 1.5432612,-2.284184 3.4035304,-4.35912 5.5042683,-6.1482707 0.6630058,0.012501 1.3174658,0.047838 1.9616867,0.1052107 l 0.8241214,1.067181 c -0.089921,0.624606 -0.1561881,1.245305 -0.1996046,1.860406 -1.8263027,1.560736 -3.4510003,3.368395 -4.7975538,5.346438 -0.6052485,0.109875 -1.2131995,0.243477 -1.8221595,0.401608 l -1.1494505,-0.698065 c -0.128529,-0.632265 -0.235899,-1.277665 -0.321308,-1.934508 z M -0.28970643,6.0929858 C 2.1351396,4.7877446 4.7416948,3.827049 7.4534201,3.287438 8.0257271,3.6180886 8.5769359,3.9677801 9.105353,4.3357101 L 9.2883344,5.6645294 C 8.9050216,6.1573448 8.5491583,6.658807 8.2199421,7.1672227 5.9200504,7.6158178 3.6864653,8.4466341 1.5957259,9.5831327 1.0117738,9.4028091 0.41256686,9.2424163 -0.2002017,9.1027565 L -0.89826192,7.953303 C -0.7206325,7.3332161 -0.51804808,6.7125459 -0.28970643,6.0929858 Z M 13.838475,2.8424876 c 2.78479,0.1833447 5.495631,0.8189954 8.055984,1.8304128 0.29993,0.5873312 0.573227,1.1786691 0.820693,1.7723203 l -0.55887,1.218586 C 21.56626,7.8729962 20.992696,8.1020427 20.437284,8.3501439 18.242744,7.4757635 15.936578,6.9382864 13.595328,6.8142517 13.200973,6.35408 12.779095,5.9037583 12.328892,5.4649801 l 5e-6,-1.3541655 c 0.478069,-0.4404057 0.981826,-0.8634488 1.509578,-1.268327 z m 13.652064,4.7895925 c 2.284182,1.5432639 4.359117,3.4035349 6.148265,5.5042749 -0.0125,0.663006 -0.04784,1.317466 -0.105213,1.961687 l -1.067182,0.82412 C 31.841804,15.832241 31.221104,15.765973 30.606004,15.722555 29.045269,13.896251 27.237612,12.271552 25.259571,10.924996 25.149696,10.319748 25.016095,9.7117966 24.857964,9.1028364 l 0.698067,-1.1494497 c 0.632264,-0.1285284 1.277665,-0.235898 1.934508,-0.3213066 z m 9.728947,10.7330669 c 1.305239,2.424847 2.265932,5.031404 2.80554,7.74313 -0.330652,0.572306 -0.680344,1.123515 -1.048274,1.651932 l -1.32882,0.182979 c -0.492815,-0.383313 -0.994277,-0.739177 -1.502692,-1.068393 -0.448593,-2.299893 -1.279406,-4.533479 -2.415903,-6.624219 0.180324,-0.583952 0.340718,-1.183159 0.480378,-1.795927 l 1.149454,-0.698059 c 0.620087,0.17763 1.240757,0.380215 1.860317,0.608557 z"
         class="UnoptimicedTransforms" />
      <g
         aria-label="Nemo"
         id="text7217"
         style="font-size:88.1944px;line-height:125%;letter-spacing:0px;word-spacing:0px;fill:#7f7f7f;stroke-width:0.264583px">
        <path
           d="m 140.27582,-21.336022 -5.29167,-8.643051 h -0.35278 l 1.05834,8.643051 v 39.246506 h -8.29028 v -62.618022 h 4.93889 l 31.4854,40.0402567 5.02708,8.2020789 h 0.44097 l -1.05833,-8.2020789 V -43.825594 h 8.29027 v 62.618022 h -4.93888 z"
           style="font-family:'PT Sans Caption';-inkscape-font-specification:'PT Sans Caption'"
           id="path665" />
        <path
           d="m 229.79318,14.118125 q -3.0868,2.293055 -7.67291,3.704165 -4.58611,1.322916 -9.96597,1.322916 -5.82083,0 -10.14235,-1.675694 -4.23333,-1.763888 -6.96736,-4.938886 -2.73402,-3.1749982 -4.05694,-7.6729124 -1.32292,-4.49791428 -1.32292,-10.0541613 0,-11.9062433 5.82083,-18.1680453 5.90903,-6.349997 16.75694,-6.349997 3.43958,0 6.87916,0.79375 3.43958,0.705555 6.17361,2.82222 2.73403,2.028471 4.40972,5.644442 1.76389,3.61597 1.76389,9.4368 0,1.4111105 -0.0882,3.2631928 -0.0882,1.8520823 -0.35277,3.6159703 h -33.0729 q 0.17639,8.1138845 3.88055,12.2590211 3.70417,4.1451368 12.6118,4.1451368 3.70416,0 7.05555,-1.234722 3.35139,-1.3229156 5.20347,-3.0868035 z m -6.08541,-24.0770701 q 0.17639,-7.0555519 -2.91041,-9.9659669 -2.99861,-2.910415 -8.46667,-2.910415 -6.1736,0 -9.78957,2.910415 -3.61597,2.910415 -4.23334,9.9659669 z"
           style="font-family:'PT Sans Caption';-inkscape-font-specification:'PT Sans Caption'"
           id="path667" />
        <path
           d="M 274.86048,17.910484 V -7.489502 q 0,-3.704165 -0.35277,-6.526385 -0.35278,-2.822221 -1.41111,-4.674303 -1.05834,-1.940277 -2.99861,-2.822221 -1.85209,-0.970138 -4.8507,-0.970138 -4.6743,0 -7.8493,2.645831 -3.0868,2.557638 -4.40972,6.61458 v 31.132622 h -8.11388 v -46.302058 h 5.55625 l 1.58749,6.173608 h 0.88195 q 2.82222,-3.174999 6.43819,-5.291664 3.70416,-2.20486 9.34861,-2.20486 4.76249,0 7.93749,2.028471 3.26319,2.028471 4.93889,6.790969 2.64583,-4.056943 6.70277,-6.438191 4.05694,-2.381249 9.08402,-2.381249 4.23334,0 7.14375,0.970138 2.99861,0.970139 4.85069,3.351387 1.85208,2.381249 2.73403,6.438191 0.88194,4.056943 0.88194,10.2305504 V 17.910484 h -8.11388 V -8.7242236 q 0,-3.5277754 -0.44097,-6.0854134 -0.35278,-2.557637 -1.41111,-4.233331 -1.05834,-1.763888 -2.99861,-2.557638 -1.85209,-0.881943 -4.93889,-0.881943 -5.02708,0 -7.9375,2.645831 -2.91041,2.645832 -4.14513,7.937496 v 29.809706 z"
           style="font-family:'PT Sans Caption';-inkscape-font-specification:'PT Sans Caption'"
           id="path669" />
        <path
           d="m 326.01323,-5.1964477 q 0,-5.7326353 1.4993,-10.2305503 1.49931,-4.586108 4.40972,-7.761107 2.91042,-3.174998 7.05556,-4.850692 4.23333,-1.675693 9.61318,-1.675693 5.64445,0 9.87778,1.852082 4.23333,1.852083 7.05555,5.20347 2.82222,3.263192 4.14514,7.761107 1.41111,4.409719 1.41111,9.7013833 0,5.64444141 -1.5875,10.1423557 -1.49931,4.4979142 -4.40972,7.672912 -2.82222,3.174999 -7.05555,4.850692 -4.14514,1.675694 -9.43681,1.675694 -5.82083,0 -10.05416,-1.852082 -4.23333,-1.852083 -7.05555,-5.115275 -2.73402,-3.2631932 -4.14513,-7.672913 -1.32292,-4.49791427 -1.32292,-9.7013837 z m 8.64305,0 q 0,3.2631927 0.70556,6.438191 0.79374,3.0868039 2.46944,5.556247 1.67569,2.4694431 4.32152,3.9687477 2.64584,1.499305 6.52639,1.499305 13.75833,0 13.75833,-17.4624907 0,-3.4395815 -0.79375,-6.6145793 -0.70556,-3.174999 -2.38125,-5.556247 -1.5875,-2.469444 -4.23333,-3.968748 -2.64584,-1.499305 -6.35,-1.499305 -6.87916,0 -10.49513,4.40972 -3.52778,4.321525 -3.52778,13.2291593 z"
           style="font-family:'PT Sans Caption';-inkscape-font-specification:'PT Sans Caption'"
           id="path671" />
      </g>
    </g>
  </g>
</svg>
